# xmcd CD database file
#
# Track frame offsets:
#	150
#	39975
#	75825
#	105575
#	145375
#	171675
#	218250
#	243650
#	271525
#
# Disc length: 4004 seconds
#
# Revision: 1
# Processed by: cddbd v1.5.1PL0 Copyright (c) Steve Scherf et al.
# Submitted via: CDex 1.51
#
DISCID=6e0fa209
DTITLE=Philipp van Endert Group - Philipp van Endert Group
DYEAR=1998
DGENRE=Jazz
TTITLE0=Nele
TTITLE1=Bretsky
TTITLE2=Shortline
TTITLE3=Did I ever Tell You
TTITLE4=Circumstanced
TTITLE5=Risk or Clue
TTITLE6=Peau Douce
TTITLE7=Glass Wells
TTITLE8=Quest
EXTD=YEAR: 1998
EXTT0=
EXTT1=
EXTT2=
EXTT3=
EXTT4=
EXTT5=
EXTT6=
EXTT7=
EXTT8=
PLAYORDER=
